<svg version="1.1" id="Layer_1" xmlns="http://www.w3.org/2000/svg" xmlns:xlink="http://www.w3.org/1999/xlink" x="0px" y="0px" viewBox="-609.5 466 430.4 150" style="enable-background:new -609.5 466 430.4 150;" xml:space="preserve">
 <style type="text/css">
  .st0{fill:#0079C1;}
	.st1{fill:#ED1C24;}
	.st2{fill:#FFFFFF;}
 </style>
 <g>
  <path class="st0" d="M-563.6,524.3c0,7.9-3.6,12.2-13,12.2h-8.1v-24c1,0,4.4,0,5.5,0h2.8C-566.8,512.4-563.6,516.5-563.6,524.3z
		 M-544.4,555.6c0-12.4-10.1-16.8-22.3-17.1V538c10.4-0.9,18.9-5.2,18.9-15.7c0-11.7-9.7-13.9-20.5-13.9c-13,0-28.3,0.3-41.2,0v4
		c2.7-0.2,9.4,0.2,9.4,3.6v49.8c0,3.3-6.8,3.8-9.4,3.8v3.9c12.5-0.3,27.4,0,40,0C-556.2,573.5-544.4,569-544.4,555.6z M-561.1,554.3
		c0,10.2-3.6,15-15.9,15h-7.7v-28.6h8.3c11.3,0,15.5,3.8,15.5,13.5L-561.1,554.3z">
  </path>
  <path class="st0" d="M-460.6,573.4c-6,0-11.6,0-17.5,0v-3.9c2.6,0,10,0,10-3.7v-46.2h-0.2l-26.3,54.7h-3.1l-25.6-54.8h-0.2v46.3
		c0,3.6,7.3,3.7,10,3.7v4c-7.3-0.2-17.2-0.4-24.3,0v-4c2.8,0,9-0.2,9-3.7V516c0-3.4-6.5-3.7-9-3.7v-4c8.3,0.4,17.2,0.4,25.4,0
		l21.9,46.2l22.4-46.1c8,0.4,17,0.3,25,0v4c-2.6,0-9.6,0.2-9.6,3.7v49.7c0,3.6,6.8,3.7,9.6,3.7v4
		C-448.9,573.4-454.8,573.4-460.6,573.4z">
  </path>
  <path class="st0" d="M-381.7,541c0,12.5-1.2,29.8-19.7,29.8c-18.5,0-19.8-17.5-19.8-29.8s1.3-29.6,19.8-29.6
		C-383,511.4-381.7,528.5-381.7,541z M-364.5,541c0-21.6-13.2-33.7-37-33.7c-23.8,0-37,11.9-37,33.7s13.2,33.8,37,33.8
		C-377.5,574.8-364.5,562.6-364.5,541z">
  </path>
  <path class="st1" d="M-254.1,466c-41.4,0-75,33.6-75,75s33.6,75,75,75s75-33.6,75-75S-212.7,466-254.1,466z">
  </path>
  <path class="st2" d="M-256.4,518.1l-13-17c-0.6-0.7-1.4-1.1-2.3-1.1c-0.9,0-1.7,0.4-2.2,1.1l-15.5,19.5v30.6l15.5-19.8
		c1-1.3,2.9-1.5,4.2-0.5c0.2,0.1,0.4,0.3,0.5,0.5l13.1,17.1c0.5,0.7,1.3,1,2.1,1.1c0.8,0,1.6-0.4,2.1-1.1l13.1-17.1
		c0.6-0.7,1.5-1.2,2.4-1.2c0.9,0,1.8,0.4,2.3,1.1l15.4,19.8v-30.6l-15.6-19.5c-0.6-0.7-1.4-1.1-2.2-1.1c-0.9,0-1.8,0.4-2.3,1.1
		l-12.9,17c-1.1,1.3-3,1.4-4.2,0.4C-256.3,518.3-256.4,518.2-256.4,518.1L-256.4,518.1z">
  </path>
  <polygon class="st2" points="-218.7,573.6 -289.5,573.6 -289.5,573.6 -289.5,573.6 -289.5,551.2 -218.7,551.2 -218.7,551.2 
		-218.7,551.2 	">
  </polygon>
 </g>
</svg>