<svg version="1.1" id="Layer_1" xmlns:x="ns_extend;" xmlns:i="ns_ai;" xmlns:graph="ns_graphs;" xmlns="http://www.w3.org/2000/svg" xmlns:xlink="http://www.w3.org/1999/xlink" x="0px" y="0px" viewBox="0 0 254 65" style="enable-background:new 0 0 254 65;" xml:space="preserve">
 <style type="text/css">
  .st0{fill-rule:evenodd;clip-rule:evenodd;fill:#C41F3E;}
	.st1{fill-rule:evenodd;clip-rule:evenodd;fill:#8B1D41;}
 </style>
 <metadata>
  <sfw xmlns="ns_sfw;">
   <slices>
   </slices>
   <sliceSourceBounds bottomLeftOrigin="true" height="65" width="254" x="-112" y="-0.3">
   </sliceSourceBounds>
  </sfw>
 </metadata>
 <g id="Logo-_x2F_-Colour-_x2F_-desktop-header-142x36">
  <g id="Group" transform="translate(0.000000, -0.000000)">
   <path id="Path" class="st0" d="M38,47.9c-2.6,2-5.7,3-9,2.9c-9.2,0-15.3-7.1-15.3-18.3c0-11.4,6.1-18.4,15.3-18.4
			c3-0.1,6,0.8,8.5,2.5l6.9-9.3C40.2,4.5,36,2.7,27.8,2.7C10.1,2.7,0,14.7,0,32.5c0,18.3,10.6,29.7,27.8,29.7
			c11,0,15.3-3.8,17.2-5.1L38,47.9z">
   </path>
   <path id="Path_1_" class="st0" d="M163,47.8c-2.6,2-5.8,3.1-9.1,3c-9.2,0-15.3-7.1-15.3-18.3c0-11.4,6.1-18.4,15.3-18.4
			c3-0.1,6,0.8,8.5,2.5l6.9-9.3c-4.3-2.9-8.5-4.6-16.6-4.6c-17.7,0-27.8,12-27.8,29.8c0,18.3,10.6,29.7,27.8,29.7
			c11,0,15.3-3.8,17.2-5.1L163,47.8z">
   </path>
   <path id="Combined-Shape" class="st0" d="M97.3,3.7c12.7,0,19.4,5.1,19.4,14.7c0,7-4.5,10.5-8.9,12.3l0,0.1
			c5.1,1.5,11.1,4.8,11.1,13.9c0,10.6-7.8,16.4-22,16.4H76.6V3.7H97.3z M95.5,36.3H90v14.9h5.7c5.8,0,9.6-2.3,9.6-7.3
			C105.4,38.6,101.5,36.3,95.5,36.3z M95.5,13.3H90v13.3h5.2c5.1,0,8.7-2,8.7-6.6C103.9,17,102,13.3,95.5,13.3z">
   </path>
   <polygon id="Path_2_" class="st0" points="51,61.2 64.3,61.2 64.3,3.7 51,3.7 		">
   </polygon>
   <path id="Fill-3" class="st0" d="M231.9,2.5c-1.2-1.6-3.1-2.6-5.2-2.5h-21.4c2.1-0.1,4,0.9,5.2,2.6c2.2,2.9,22.1,29.9,22.1,29.9
			s-19.9,27.1-22.1,29.9c-1.2,1.7-3.1,2.6-5.2,2.6h21.4c2,0.1,4-0.8,5.2-2.5l22.1-30L231.9,2.5z">
   </path>
   <path id="Fill-6" class="st1" d="M216,10L216,10c-2.7-3.7-4.9-6.6-5.5-7.4c-1.2-1.7-3.1-2.6-5.2-2.6c-2-0.1-4,0.9-5.2,2.5
			l-22.1,30l22.1,30c1.2,1.6,3.1,2.6,5.2,2.5c2.1,0.1,4-0.9,5.2-2.6L216,55l-16.6-22.5L216,10z">
   </path>
  </g>
 </g>
</svg>