<svg version="1.1" id="Layer_1" xmlns="http://www.w3.org/2000/svg" xmlns:xlink="http://www.w3.org/1999/xlink" x="0px" y="0px" viewBox="-634 149.8 714.7 101.3" style="enable-background:new -634 149.8 714.7 101.3;" xml:space="preserve">
 <style type="text/css">
  .st0{fill:#ED1C24;}
 </style>
 <g>
  <g>
   <path class="st0" d="M-461.2,180.5c-19.3,0-35.2,15.9-35.2,35.2s15.9,35.2,35.2,35.2c19.3,0,35.2-15.9,35.2-35.2
			S-441.9,180.5-461.2,180.5z M-461.2,231.3c-8.7,0-15.6-7-15.6-15.6c0-8.7,7-15.6,15.6-15.6c8.7,0,15.6,7,15.6,15.6
			C-445.8,224.3-452.5,231.3-461.2,231.3z">
   </path>
   <polygon class="st0" points="-381.3,182.2 -390.8,182.2 -390.8,161.5 -411.8,161.5 -411.8,182.2 -421.5,182.2 -421.5,201.1 
			-411.8,201.1 -411.8,249.2 -390.8,249.2 -390.8,201.1 -381.3,201.1 		">
   </polygon>
   <rect x="-371.6" y="182.2" class="st0" width="20.9" height="67">
   </rect>
   <path class="st0" d="M-361,149.8c-6.4,0-11.7,5.3-11.7,11.7c0,6.4,5.3,11.7,11.7,11.7s11.7-5.3,11.7-11.7
			C-349.2,155.1-354.5,149.8-361,149.8z">
   </path>
   <path class="st0" d="M-59.4,200.3c7,0,12.6,5.6,12.6,12.6v36.3h20.9v-39.4c0-17.9-10.3-29.3-26.5-29.3c-6.7,0-13.7,2.8-19.5,12.3
			v-10.6h-20.9v67H-72v-36.3C-72,205.9-66.4,200.3-59.4,200.3z">
   </path>
   <polygon class="st0" points="50.5,249.2 24.9,215.7 48.9,182.2 24.3,182.2 5,209.2 5,151.5 -16.2,151.5 -16.2,249.2 5,249.2 
			5,221.5 26.3,249.2 		">
   </polygon>
   <path class="st0" d="M-568.7,231.3c1.4-3.6,2.2-7.3,2.2-12.3c0-6.7-2.2-12.8-5.9-17c-4.5-5-12.3-8.9-22.9-12
			c-2.2-0.6-4.2-1.4-5.9-2.2c-2-0.8-3.4-2-4.5-3.4c-1.4-1.4-2-3.4-2-5.3c0-3.1,1.7-5.3,4.5-7c3.4-2.2,10.1-2.2,16.8,0
			c2.2,0.8,4.5,2,6.7,3.1l8.9-17.9c-3.4-2-8.1-4.5-12.8-5.9c-4.7-1.1-9.5-1.7-14.2-1.7c-5,0-9.5,0.8-13.4,2.2
			c-3.6,1.4-7.3,3.6-10.3,6.7c-2.8,2.8-5.3,6.7-6.7,10.1c-1.4,3.6-2.2,7.8-2.2,12.3c0,4.7,2.2,12.6,7.8,17.9
			c6.1,5.9,13.1,7.8,15.9,8.9c2.8,1.1,5.9,2,7.8,2.8s4.5,2,5.9,2.8c1.4,1.1,2.5,2,3.1,3.4c0.6,1.4,0.8,2.5,0.6,4.2
			c-0.3,2.2-1.1,4.2-3.1,5.9c-1.7,1.7-5,2.8-9.8,2.8c-3.9,0-7.8-1.1-11.7-2.8c-3.4-1.4-5.9-2.8-9.5-5l-10.6,18.4
			c7.3,6.4,19.3,10.9,29.9,10.9c5.3,0,11.2-0.8,15.9-2.5c4.5-1.7,8.9-3.9,12-6.7C-573.1,238.8-570.3,234.9-568.7,231.3z">
   </path>
   <path class="st0" d="M-511.2,225.4c-2.8,3.6-7.3,5.9-12,5.9c-8.7,0-15.6-7-15.6-15.6c0-8.7,7-15.6,15.6-15.6c4.7,0,9.2,2.2,12,5.9
			l14-14c-6.4-7-15.6-11.4-26-11.4c-19.3,0-36.3,13.7-36.3,35.2s16.8,35.2,36.3,35.2c10.3,0,19.5-4.5,26-11.4L-511.2,225.4z">
   </path>
   <path class="st0" d="M-268.3,249.2v-67h-20.4v7l-2-1.7c-5-4.5-10.9-7-17.6-7c-18.1,0-33.5,16.2-33.5,35.2s15.4,35.2,33.5,35.2
			c6.7,0,12.6-2.5,17.6-7l2-1.7v7C-288.7,249.2-268.3,249.2-268.3,249.2z M-305.1,231.6c-8.7,0-15.9-7-15.9-15.9
			c0-8.9,7-15.9,15.9-15.9c8.9,0,15.9,7,15.9,15.9C-289.2,224.6-296.5,231.6-305.1,231.6z">
   </path>
   <path class="st0" d="M-103.3,249.2v-67h-20.4v7l-2-1.7c-5-4.5-10.9-7-17.6-7c-18.1,0-33.5,16.2-33.5,35.2s15.4,35.2,33.5,35.2
			c6.7,0,12.6-2.5,17.6-7l2-1.7v7C-123.7,249.2-103.3,249.2-103.3,249.2z M-139.9,231.6c-8.7,0-15.9-7-15.9-15.9
			c0-8.9,7-15.9,15.9-15.9s15.9,7,15.9,15.9C-123.9,224.6-131.2,231.6-139.9,231.6z">
   </path>
   <path class="st0" d="M-237,249.2v-7l2,1.7c5,4.5,10.9,7,17.6,7c18.1,0,33.5-16.2,33.5-35.2s-15.4-35.2-33.5-35.2
			c-6.7,0-12.6,2.5-17.6,7l-2,1.7v-37.7h-20.4v97.7H-237z M-236.4,215.7c0-8.7,7-15.9,15.9-15.9s15.9,7,15.9,15.9
			c0,8.9-7,15.9-15.9,15.9S-236.4,224.6-236.4,215.7z">
   </path>
   <g>
    <path class="st0" d="M58.9,249.2v-10.6H55V236h10.3v2.5h-3.9v10.6H60H58.9z">
    </path>
    <path class="st0" d="M67.6,249.2V236h2.2l4.5,7.5l4.2-7.5h2.2v13.1h-2.5v-7.5l-2.8,5h-2.2l-3.1-5.3v7.5h-2.5V249.2z">
    </path>
   </g>
  </g>
 </g>
</svg>